<svg width="67" height="69" viewBox="0 0 67 69" fill="none" xmlns="http://www.w3.org/2000/svg">
<path d="M66.9924 28.5774C66.9924 25.4047 64.433 22.8298 61.2795 22.8298C60.5254 22.8298 59.8018 22.983 59.1391 23.2512C59.1467 23.121 59.1543 22.983 59.1543 22.8451C59.1543 21.2127 58.4764 19.7567 57.3948 18.7068V16.2467C57.3948 13.8557 55.4676 11.9245 53.0987 11.9245H41.4673C32.9361 11.9245 25.9892 18.8907 25.9511 27.4662H19.964V15.0512H25.4332C27.4517 15.0512 29.097 13.4036 29.097 11.3651C29.097 9.32655 27.4593 7.67889 25.4332 7.67889H19.964V3.68617C19.964 1.65533 18.3263 0 16.3002 0C14.274 0 12.6363 1.64767 12.6363 3.68617V7.67889L12.5982 7.74786H4.72971C2.71117 7.74786 1.06586 9.39553 1.06586 11.434C1.06586 13.4725 2.70355 15.1202 4.72971 15.1202H8.50783L0.311762 33.8499C-0.503274 35.7122 0.334613 37.8886 2.18558 38.7087C4.03655 39.5287 6.19983 38.6857 7.01486 36.8234L12.6363 23.9793V45.989C12.6363 46.8014 13.2914 47.4528 14.0912 47.4528H18.5015C19.309 47.4528 19.9564 46.7937 19.9564 45.989V34.8309H25.9435C25.9816 43.4064 32.9284 50.3726 41.4597 50.3726H50.0747V51.3305C50.0747 56.3042 46.7307 60.5728 42.1681 61.776C40.5837 62.1898 39.4335 63.5616 39.3802 65.2093C39.2964 67.6846 41.6196 69.5085 43.9962 68.8724C51.7047 66.8109 57.3948 59.7298 57.3948 51.3305V43.69C55.7342 43.4217 54.3022 42.4485 53.4491 41.069C52.4436 42.6937 50.646 43.7743 48.6046 43.7743C47.5839 43.7743 46.6393 43.4831 45.8167 43.0156H41.4673C36.9351 43.0156 33.2712 39.3217 33.2712 34.7696V27.5505C33.2712 22.9907 36.9427 19.3045 41.4673 19.3045H49.0159C48.2389 20.2854 47.7438 21.504 47.7438 22.8604C47.7438 22.9983 47.7438 23.1286 47.7591 23.2666C47.0964 22.9983 46.3727 22.8451 45.6186 22.8451C42.4651 22.8451 39.9058 25.42 39.9058 28.5927C39.9058 31.2903 41.7491 33.5434 44.2399 34.1718C43.402 35.1681 42.8993 36.4556 42.8993 37.8657C42.8993 40.0115 44.0876 41.866 45.8167 42.847C46.6469 43.3145 47.5915 43.6057 48.6046 43.6057C50.646 43.6057 52.436 42.5251 53.4491 40.9004C54.3098 42.2799 55.7342 43.2608 57.3948 43.5214C57.6842 43.5673 57.9813 43.598 58.2936 43.598C61.4471 43.598 64.0065 41.023 64.0065 37.8503C64.0065 36.4402 63.5037 35.1528 62.6658 34.1565C65.1566 33.5357 67 31.275 67 28.5774H66.9924ZM59.1086 32.5242C59.5885 33.0913 59.8703 33.827 59.8703 34.6316C59.8703 36.4479 58.4078 37.9116 56.6102 37.9116C55.4448 37.9116 54.4165 37.2909 53.8452 36.3713C53.2663 37.2986 52.2456 37.9116 51.0801 37.9116C49.2749 37.9116 47.82 36.4402 47.82 34.6316C47.82 33.827 48.1094 33.0913 48.5817 32.5242C47.1573 32.1716 46.1061 30.8765 46.1061 29.3361C46.1061 27.5198 47.5686 26.0561 49.3663 26.0561C49.8004 26.0561 50.2118 26.1404 50.5926 26.2937C50.5926 26.217 50.585 26.1404 50.585 26.0638C50.585 24.2475 52.0475 22.7838 53.8452 22.7838C55.6428 22.7838 57.1053 24.2552 57.1053 26.0638C57.1053 26.1404 57.1053 26.217 57.0977 26.2937C57.4785 26.1404 57.8899 26.0561 58.3241 26.0561C60.1293 26.0561 61.5842 27.5275 61.5842 29.3361C61.5842 30.8765 60.533 32.164 59.1086 32.5242Z" fill="#737373"/>
</svg>
